<!-- logo.svg-->
<svg version="1.0" xmlns="http://www.w3.org/2000/svg"
 width="512.000000pt" height="512.000000pt" viewBox="0 0 512.000000 512.000000"
 preserveAspectRatio="xMidYMid meet">

<g transform="translate(0.000000,512.000000) scale(0.100000,-0.100000)"
fill="hsl(39 100% 50%)" stroke="none">
<path d="M322 5020 c-28 -27 -37 -62 -21 -92 7 -12 49 -68 94 -123 131 -160
268 -346 401 -547 106 -159 129 -187 155 -193 53 -12 107 41 94 93 -21 83
-585 855 -641 876 -30 11 -60 6 -82 -14z"/>
<path d="M1130 4990 c-23 -23 -27 -77 -7 -103 7 -10 280 -134 607 -275 l594
-258 39 -65 c77 -124 197 -356 263 -504 36 -82 73 -158 82 -167 38 -44 132 -6
132 53 0 39 -126 320 -214 478 -25 46 -45 86 -43 87 2 2 196 -79 430 -181 235
-102 440 -185 455 -185 52 0 86 61 66 115 -4 9 -27 26 -53 39 -25 13 -546 240
-1157 505 -685 297 -1123 481 -1143 481 -18 0 -39 -8 -51 -20z"/>
<path d="M1445 4575 c-40 -40 -33 -68 53 -195 144 -210 393 -643 379 -656 -3
-3 -99 19 -214 50 -1498 396 -1505 398 -1534 386 -53 -22 -63 -104 -16 -134
12 -8 238 -71 502 -141 264 -70 481 -128 482 -129 2 -1 36 -72 77 -157 124
-259 205 -492 249 -713 16 -82 27 -117 44 -133 30 -31 77 -30 110 3 30 30 29
45 -13 232 -36 159 -101 352 -184 544 -38 89 -68 163 -66 165 1 2 285 -72 629
-163 573 -151 629 -164 654 -152 42 20 57 59 39 101 -16 40 -5 36 -276 107
-107 28 -212 55 -233 61 -36 10 -40 15 -126 188 -139 276 -424 738 -466 755
-33 12 -66 6 -90 -19z"/>
<path d="M105 3925 c-38 -37 -31 -67 38 -179 242 -385 391 -753 423 -1043 l7
-63 -222 0 -222 0 -24 -25 c-33 -32 -33 -78 0 -110 l24 -25 222 0 222 0 -7
-71 c-26 -286 -179 -668 -421 -1054 -38 -59 -65 -114 -65 -130 0 -59 82 -96
129 -58 30 26 202 316 276 468 332 679 330 1160 -7 1843 -73 148 -240 430
-269 455 -30 25 -75 22 -104 -8z"/>
<path d="M3535 3790 c-382 -60 -699 -271 -895 -594 -132 -217 -197 -500 -171
-746 32 -309 146 -548 364 -768 215 -218 498 -342 812 -358 521 -27 1004 281
1205 767 81 195 111 458 75 669 -83 497 -443 884 -938 1006 -115 28 -346 40
-452 24z m-2 -365 l97 -37 0 -127 0 -127 -194 -142 -195 -141 -118 26 c-65 15
-119 28 -121 29 -2 1 -25 85 -52 188 -48 183 -48 186 -30 209 32 40 154 135
239 187 l81 48 98 -37 c53 -21 141 -55 195 -76z m699 74 c88 -52 170 -114 231
-176 l58 -59 -37 -160 c-20 -87 -41 -164 -48 -170 -11 -12 -212 -74 -245 -77
-9 0 -103 62 -209 139 l-192 139 0 126 0 126 183 71 c100 38 187 70 194 71 7
1 36 -13 65 -30z m398 -894 c114 -130 140 -166 140 -191 0 -47 -39 -189 -77
-280 -40 -96 -16 -83 -262 -144 -134 -33 -166 -39 -176 -28 -7 7 -49 73 -94
146 l-82 132 74 228 74 227 119 37 c65 20 125 35 131 35 7 -1 76 -74 153 -162z
m-1550 117 l114 -28 74 -227 74 -227 -93 -142 c-51 -79 -93 -144 -95 -146 -1
-2 -92 20 -202 49 l-201 52 -26 54 c-34 72 -61 154 -78 238 l-14 70 161 167
c89 92 163 167 166 167 3 0 57 -12 120 -27z m955 -718 c50 -80 89 -149 88
-152 -1 -4 -49 -84 -108 -179 l-107 -172 -47 -8 c-56 -10 -286 -10 -321 0 -18
5 -54 52 -137 180 -62 95 -113 177 -113 182 0 4 42 73 93 151 l92 144 235 0
235 0 90 -146z"/>
<path d="M2081 3354 c-26 -33 -26 -52 0 -134 45 -144 90 -376 102 -527 l4 -53
-649 0 -649 0 -24 -25 c-33 -32 -33 -78 0 -110 l24 -25 650 0 651 0 -6 -62
c-13 -144 -38 -291 -71 -418 -50 -188 -50 -194 -19 -224 30 -31 74 -34 105 -8
34 28 98 272 132 507 17 116 17 423 0 545 -31 230 -106 513 -142 543 -33 26
-83 22 -108 -9z"/>
<path d="M1471 2373 c-16 -14 -27 -48 -46 -144 -46 -233 -128 -473 -251 -729
l-65 -135 -487 -128 c-268 -71 -497 -135 -509 -143 -47 -30 -40 -108 11 -133
27 -12 77 -1 720 169 1027 271 1036 274 1042 267 14 -13 -192 -380 -343 -611
-56 -87 -103 -168 -103 -178 0 -23 52 -78 74 -78 41 0 66 25 147 146 156 234
287 465 384 674 26 58 49 106 50 108 1 1 96 27 211 58 335 88 313 80 330 120
18 42 4 80 -36 102 -23 13 -75 1 -650 -151 -344 -90 -626 -164 -628 -162 -1 1
12 33 29 71 124 276 224 593 245 781 6 57 5 63 -19 87 -31 31 -75 34 -106 9z"/>
<path d="M2745 1530 c-30 -11 -35 -21 -99 -170 -63 -147 -174 -365 -254 -501
l-51 -86 -583 -252 c-412 -178 -590 -259 -606 -278 -42 -47 -7 -123 57 -123
23 0 2159 918 2279 979 42 22 52 37 52 80 0 35 -37 71 -73 71 -15 0 -214 -81
-443 -180 -229 -100 -418 -179 -420 -177 -3 2 29 69 69 148 40 79 97 199 125
266 66 153 67 189 11 218 -31 17 -36 17 -64 5z"/>
<path d="M913 1008 c-12 -13 -62 -85 -112 -161 -116 -176 -224 -324 -373 -511
-129 -163 -139 -186 -93 -231 28 -29 71 -32 101 -7 68 57 395 495 540 725 73
115 81 152 38 186 -35 27 -75 27 -101 -1z"/>
</g>
</svg>

